<?xml version="1.0" encoding="UTF-8" standalone="no"?>
<svg
   version="1.0"
   width="514.30115pt"
   height="312.5719pt"
   viewBox="31.148 128.737 453.035 171.41761"
   preserveAspectRatio="xMidYMid"
   id="svg10"
   sodipodi:docname="logo.svg"
   inkscape:version="1.3.2 (091e20e, 2023-11-25)"
   xmlns:inkscape="http://www.inkscape.org/namespaces/inkscape"
   xmlns:sodipodi="http://sodipodi.sourceforge.net/DTD/sodipodi-0.dtd"
   xmlns="http://www.w3.org/2000/svg"
   xmlns:svg="http://www.w3.org/2000/svg">
  <sodipodi:namedview
     id="namedview10"
     pagecolor="#ffffff"
     bordercolor="#000000"
     borderopacity="0.25"
     inkscape:showpageshadow="2"
     inkscape:pageopacity="0.0"
     inkscape:pagecheckerboard="0"
     inkscape:deskcolor="#d1d1d1"
     inkscape:document-units="pt"
     inkscape:zoom="0.9777961"
     inkscape:cx="356.41378"
     inkscape:cy="92.04373"
     inkscape:window-width="1904"
     inkscape:window-height="1235"
     inkscape:window-x="4202"
     inkscape:window-y="738"
     inkscape:window-maximized="0"
     inkscape:current-layer="svg10">
    <inkscape:page
       x="0"
       y="0"
       width="453.035"
       height="171.4176"
       id="page10"
       margin="0 0 0"
       bleed="0" />
  </sodipodi:namedview>
  <defs
     id="defs1" />
  <g
     transform="matrix(0.1,0,0,-0.1,2.7026339,455.24468)"
     fill="#000000"
     stroke="none"
     id="g10">
    <path
       d="M 1195,2808 C 854,2307 527,1826 467,1739 l -107,-158 132,-90 132,-90 25,37 c 14,20 340,498 724,1062 385,564 701,1030 703,1035 3,8 -231,175 -254,182 -4,1 -286,-408 -627,-909 z"
       id="path1" />
    <path
       d="m 3160,3648 c -23,-16 -256,-349 -726,-1038 -381,-558 -693,-1020 -694,-1025 0,-10 226,-171 248,-177 6,-2 290,406 631,905 340,500 622,909 625,910 2,1 282,-403 620,-898 339,-495 622,-904 629,-909 9,-5 54,20 140,79 l 127,87 -18,26 c -10,15 -326,476 -702,1026 -474,693 -692,1004 -714,1017 -44,27 -124,25 -166,-3 z"
       id="path2" />
    <path
       d="m 3087,2973 c -4,-3 -7,-266 -7,-584 0,-458 3,-578 13,-575 6,3 24,7 40,10 l 27,6 v 98 c 1,89 2,98 24,114 38,28 73,27 104,-2 20,-18 22,-31 22,-111 v -90 l 33,-14 c 17,-7 35,-10 40,-6 4,4 6,266 5,582 l -3,574 -22,3 c -17,2 -23,-3 -28,-27 l -7,-31 h -94 c -84,0 -94,2 -94,18 0,31 -35,54 -53,35 z m 227,-159 c 3,-9 6,-42 6,-75 v -59 h -90 -90 v 65 c 0,78 8,84 101,85 52,0 68,-4 73,-16 z m -15,-260 c 15,-19 21,-41 21,-78 v -51 h -87 c -77,0 -88,2 -91,18 -6,32 7,82 30,110 31,38 97,39 127,1 z m -10,-260 c 8,-8 18,-38 21,-69 l 6,-55 h -78 -78 v 53 c 0,54 13,77 50,90 21,7 62,-3 79,-19 z"
       id="path3" />
    <path
       d="m 3420,2307 v -507 h 23 22 l -2,307 -3,308 20,-55 c 18,-49 20,-80 20,-316 0,-273 0,-274 41,-274 5,0 9,84 9,197 0,175 2,195 15,177 11,-15 14,-57 15,-201 0,-104 4,-183 9,-183 5,0 16,-3 25,-6 14,-5 16,10 16,127 0,126 1,132 16,110 13,-18 16,-46 15,-137 -2,-111 -1,-115 21,-123 13,-5 27,-6 32,-3 5,2 6,38 3,79 -5,73 -5,75 14,57 15,-14 19,-31 19,-86 0,-37 4,-68 9,-68 5,0 16,-3 25,-6 13,-5 16,2 16,35 v 41 l 60,-39 c 69,-45 167,-81 219,-81 h 36 l -60,31 c -109,57 -154,94 -236,189 -108,126 -178,254 -264,480 -36,95 -83,266 -111,410 -3,14 -9,29 -15,35 -5,5 -9,-181 -9,-498 z"
       id="path4" />
    <path
       d="m 3016,2731 c -11,-87 -76,-315 -113,-399 -8,-18 -16,-41 -18,-52 -14,-72 -156,-317 -233,-400 -23,-25 -42,-48 -42,-51 0,-14 -120,-99 -185,-132 -70,-36 -70,-36 -33,-37 49,0 159,41 226,85 l 52,35 v -40 c 0,-43 2,-45 31,-30 16,9 19,22 19,73 0,43 6,69 18,85 16,21 17,20 14,-59 l -4,-80 29,3 28,3 5,125 c 3,72 10,134 17,145 10,16 12,-5 13,-117 0,-77 4,-138 9,-138 39,0 41,7 41,189 1,127 5,184 15,206 12,27 13,9 14,-166 1,-108 4,-199 7,-202 4,-3 15,-2 25,4 18,9 19,26 19,273 0,186 4,273 13,297 10,29 13,-9 17,-256 l 5,-290 23,-1 22,-1 v 488 c 0,408 -2,489 -14,489 -9,0 -16,-17 -20,-49 z"
       id="path5" />
    <path
       d="m 3199,1806 c -2,-3 -16,-7 -29,-9 -14,-3 -45,-10 -70,-17 -25,-7 -52,-13 -60,-15 -44,-9 -126,-31 -215,-57 -113,-33 -110,-33 -185,-52 -50,-13 -115,-31 -257,-71 -55,-16 -75,-43 -52,-71 13,-16 43,-15 119,6 25,7 52,14 60,16 8,2 62,15 120,29 58,14 114,27 125,29 18,4 73,18 130,33 67,17 77,16 101,-13 16,-20 23,-42 24,-71 v -43 h 75 74 l 3,72 c 3,69 4,73 34,90 26,15 36,16 63,7 41,-15 51,-35 51,-109 v -61 l 73,3 72,3 5,45 c 3,25 14,57 23,72 17,24 21,25 54,16 19,-5 43,-11 52,-13 9,-1 36,-8 61,-15 25,-7 52,-13 60,-15 14,-3 131,-32 205,-51 17,-4 37,-9 45,-10 8,-2 33,-8 55,-14 68,-19 113,-22 121,-8 14,22 13,36 -4,51 -13,11 -264,87 -372,111 -8,2 -35,9 -60,16 -25,7 -47,12 -50,12 -3,0 -13,4 -22,9 -14,8 -143,43 -328,90 -37,9 -94,12 -101,5 z"
       id="path6" />
    <path
       d="m 2492,1433 3,-28 h 740 740 l 3,28 3,27 h -746 -746 z"
       id="path7" />
    <path
       d="m 2580,1340 c 0,-10 9,-24 19,-30 14,-7 226,-9 647,-8 588,3 628,4 638,21 8,14 8,20 -4,27 -9,6 -266,10 -657,10 -633,0 -643,0 -643,-20 z"
       id="path8" />
    <path
       d="m 2710,1246 c 0,-40 14,-41 514,-43 503,-3 526,-1 534,40 3,16 -30,17 -522,17 -440,0 -526,-2 -526,-14 z"
       id="path9" />
    <path
       d="m 2892,1148 c 10,-31 81,-39 324,-39 233,-1 300,4 337,23 47,24 3,28 -324,28 -268,0 -340,-3 -337,-12 z"
       id="path10" />
  </g>
</svg>
